
<svg width="152px" height="51px" viewBox="0 0 152 51" version="1.1" xmlns="http://www.w3.org/2000/svg" xmlns:xlink="http://www.w3.org/1999/xlink">
    <g id="Page-1" stroke="none" stroke-width="1" fill="none" fill-rule="evenodd" stroke-linecap="round" stroke-linejoin="round">
        <g id="Letter" transform="translate(-89.000000, -63.000000)" fill-rule="nonzero" stroke="#000000">
            <g id="Group" transform="translate(90.000000, 64.000000)">
                <path d="M8.21765486,2.8104045e-14 C4.11389676,0.494411588 -0.238032005,0.184143596 0.0101386625,6.1162026 L0.0101386625,43.5082197 C0.0101386625,46.4746892 1.88115689,49.2934484 9.0768669,48.4149877 L109.170104,48.9467472 C116.551739,49.2313997 117.685517,48.4223841 122.30213,45.3655461 L147.168007,28.7830655 C151.474187,25.6931414 150.440073,21.6887536 146.93699,19.252051 L122.30213,2.47205794 C117.293091,-0.720204416 115.225872,0.187045792 111.42928,0 L8.21765486,2.8104045e-14 Z" id="path4296" stroke-width="2" fill="#F90505" transform="translate(75.000000, 24.500000) scale(-1, 1) translate(-75.000000, -24.500000) "></path>
                <path d="M21.9999971,23 C21.9999971,26.3137085 19.3137056,29 15.9999971,29 C12.6862886,29 9.9999971,26.3137085 9.9999971,23 C9.9999971,19.6862915 12.6862886,17 15.9999971,17 C19.3137056,17 21.9999971,19.6862915 21.9999971,23 Z" id="path4298" fill="#FFFFFF" transform="translate(15.999997, 23.000000) scale(-1, 1) translate(-15.999997, -23.000000) "></path>
                <rect id="rect4300" fill="#FFFFFF" transform="translate(89.499997, 24.500000) scale(-1, 1) translate(-89.499997, -24.500000) " x="33.9999971" y="7" width="111" height="35"></rect>
            </g>
        </g>
    </g>
</svg>